<svg width="748" height="747" viewBox="0 0 748 747" fill="none" xmlns="http://www.w3.org/2000/svg">
<path d="M303.71 319.711C342.763 280.658 406.079 280.658 445.132 319.711C484.184 358.763 484.184 422.08 445.132 461.132C406.079 500.184 342.763 500.184 303.71 461.132C264.658 422.08 264.658 358.763 303.71 319.711Z" fill="#32A9FF" fill-opacity="0.24"/>
<path d="M352 368H396V382.52L374 375.333L352 382.52V368ZM344.446 415.667H344.666C350.533 415.667 355.666 412.44 359.333 408.333C363 412.44 368.133 415.667 374 415.667C379.866 415.667 385 412.44 388.666 408.333C392.333 412.44 397.466 415.667 403.333 415.667H403.516L410.483 391.137C410.776 390.22 410.666 389.193 410.263 388.313C409.786 387.433 409.016 386.773 408.063 386.48L403.333 384.94V368C403.333 363.93 400.033 360.667 396 360.667H385V349.667H363V360.667H352C350.055 360.667 348.189 361.439 346.814 362.815C345.439 364.19 344.666 366.055 344.666 368V384.94L339.936 386.48C338.983 386.773 338.213 387.433 337.736 388.313C337.333 389.193 337.223 390.22 337.516 391.137L344.446 415.667ZM403.333 423C398.236 423 393.14 421.277 388.666 418.123C379.72 424.393 368.28 424.393 359.333 418.123C354.86 421.277 349.763 423 344.666 423H337.333V430.333H344.666C349.69 430.333 354.713 429.05 359.333 426.667C368.5 431.433 379.5 431.433 388.666 426.667C393.286 429.05 398.273 430.333 403.333 430.333H410.666V423H403.333Z" fill="#32A9FF"/>
<path d="M71.7102 384.132C32.6578 345.08 32.6578 281.763 71.7102 242.711C110.763 203.658 174.079 203.658 213.132 242.711C252.184 281.763 252.184 345.08 213.132 384.132C174.079 423.184 110.763 423.184 71.7102 384.132Z" fill="#39FF94" fill-opacity="0.24"/>
<path d="M176.723 314.577C168.95 322.35 156.006 319.747 156.006 319.747V304.2L110.503 349.667L105.333 344.497L150.8 298.993H135.253C135.253 298.993 132.65 286.05 140.423 278.277C148.196 270.489 161.176 273.07 161.176 273.07V288.653L163.78 286.05L168.95 291.22L166.346 293.823H181.93C181.93 293.823 184.496 306.803 176.723 314.577Z" fill="#39FF94"/>
<path d="M161.71 525.711C200.763 486.658 264.079 486.658 303.132 525.711C342.184 564.763 342.184 628.08 303.132 667.132C264.079 706.184 200.763 706.184 161.71 667.132C122.658 628.08 122.658 564.763 161.71 525.711Z" fill="#FF6D74" fill-opacity="0.24"/>
<path d="M265 592.333C265 612.683 250.92 631.713 232 636.333C213.08 631.713 199 612.683 199 592.333V570.333L232 555.667L265 570.333V592.333ZM232 629C245.75 625.333 257.667 608.98 257.667 593.14V575.1L232 563.66L206.333 575.1V593.14C206.333 608.98 218.25 625.333 232 629Z" fill="#FF6D74"/>
<path d="M444.71 667.132C405.658 628.08 405.658 564.763 444.71 525.711C483.763 486.658 547.079 486.658 586.132 525.711C625.184 564.763 625.184 628.08 586.132 667.132C547.079 706.184 483.763 706.184 444.71 667.132Z" fill="#E37CB4" fill-opacity="0.24"/>
<path d="M485.667 574H544.333V610.667H485.667V574ZM544.333 618C546.278 618 548.144 617.228 549.519 615.852C550.894 614.477 551.667 612.612 551.667 610.667V574C551.667 569.93 548.367 566.667 544.333 566.667H485.667C481.597 566.667 478.333 569.93 478.333 574V610.667C478.333 612.612 479.106 614.477 480.481 615.852C481.856 617.228 483.722 618 485.667 618H471V625.334H559V618H544.333Z" fill="#E37CB4"/>
<path d="M303.71 223.132C264.658 184.08 264.658 120.763 303.71 81.7107C342.763 42.6583 406.079 42.6583 445.132 81.7107C484.184 120.763 484.184 184.08 445.132 223.132C406.079 262.184 342.763 262.184 303.71 223.132Z" fill="#FFBC5D" fill-opacity="0.24"/>
<path d="M384.78 179.5L374 173.157L363.22 179.5L366.08 167.253L356.584 159.04L369.087 157.977L374 146.5L378.914 157.977L391.417 159.04L381.92 167.253L384.78 179.5ZM403.334 115.333H344.667V122.667L362.487 136.013C356.27 138.667 351.16 143.386 348.021 149.372C344.882 155.359 343.908 162.246 345.262 168.869C346.616 175.491 350.215 181.443 355.452 185.717C360.689 189.992 367.241 192.326 374 192.326C380.76 192.326 387.312 189.992 392.549 185.717C397.785 181.443 401.385 175.491 402.739 168.869C404.093 162.246 403.118 155.359 399.98 149.372C396.841 143.386 391.731 138.667 385.514 136.013L403.334 122.667V115.333ZM396 163C396.002 167.167 394.821 171.248 392.594 174.769C390.368 178.29 387.187 181.107 383.422 182.891C379.657 184.675 375.462 185.354 371.327 184.847C367.191 184.341 363.285 182.671 360.061 180.031C356.838 177.391 354.43 173.891 353.119 169.936C351.807 165.982 351.646 161.736 352.653 157.693C353.66 153.65 355.794 149.977 358.807 147.099C361.82 144.222 365.589 142.26 369.674 141.44C372.528 140.853 375.472 140.853 378.327 141.44C383.31 142.44 387.793 145.133 391.015 149.064C394.236 152.994 395.998 157.918 396 163V163ZM376.31 133.667H371.69L357.024 122.667H391.27L376.31 133.667Z" fill="#FFBC5D"/>
<path d="M535.71 384.132C496.658 345.08 496.658 281.763 535.71 242.711C574.763 203.658 638.079 203.658 677.132 242.711C716.184 281.763 716.184 345.08 677.132 384.132C638.079 423.184 574.763 423.184 535.71 384.132Z" fill="#A088FF" fill-opacity="0.24"/>
<path d="M573 291H639V335H573V291ZM606 302C608.917 302 611.715 303.159 613.778 305.222C615.841 307.285 617 310.083 617 313C617 315.918 615.841 318.716 613.778 320.778C611.715 322.841 608.917 324 606 324C603.083 324 600.285 322.841 598.222 320.778C596.159 318.716 595 315.918 595 313C595 310.083 596.159 307.285 598.222 305.222C600.285 303.159 603.083 302 606 302V302ZM587.667 298.334C587.667 300.278 586.894 302.144 585.519 303.519C584.144 304.894 582.278 305.667 580.333 305.667V320.334C582.278 320.334 584.144 321.106 585.519 322.481C586.894 323.857 587.667 325.722 587.667 327.667H624.333C624.333 325.722 625.106 323.857 626.481 322.481C627.856 321.106 629.722 320.334 631.667 320.334V305.667C629.722 305.667 627.856 304.894 626.481 303.519C625.106 302.144 624.333 300.278 624.333 298.334H587.667Z" fill="#A088FF"/>
</svg>
