<svg width="747" height="727" viewBox="0 0 747 727" fill="none" xmlns="http://www.w3.org/2000/svg">
<rect x="373.421" y="238" width="200" height="200" rx="100" transform="rotate(45 373.421 238)" fill="#C7E7FF"/>
<path d="M351 357H395V371.52L373 364.333L351 371.52V357ZM343.446 404.667H343.666C349.533 404.667 354.666 401.44 358.333 397.333C362 401.44 367.133 404.667 373 404.667C378.866 404.667 384 401.44 387.666 397.333C391.333 401.44 396.466 404.667 402.333 404.667H402.516L409.483 380.137C409.776 379.22 409.666 378.193 409.263 377.313C408.786 376.433 408.016 375.773 407.063 375.48L402.333 373.94V357C402.333 352.93 399.033 349.667 395 349.667H384V338.667H362V349.667H351C349.055 349.667 347.189 350.439 345.814 351.815C344.439 353.19 343.666 355.055 343.666 357V373.94L338.936 375.48C337.983 375.773 337.213 376.433 336.736 377.313C336.333 378.193 336.223 379.22 336.516 380.137L343.446 404.667ZM402.333 412C397.236 412 392.14 410.277 387.666 407.123C378.72 413.393 367.28 413.393 358.333 407.123C353.86 410.277 348.763 412 343.666 412H336.333V419.333H343.666C348.69 419.333 353.713 418.05 358.333 415.667C367.5 420.433 378.5 420.433 387.666 415.667C392.286 418.05 397.273 419.333 402.333 419.333H409.666V412H402.333Z" fill="#32A9FF"/>
<rect y="302.421" width="200" height="200" rx="100" transform="rotate(-45 0 302.421)" fill="#C0FFDD"/>
<path d="M175.723 303.577C167.95 311.35 155.006 308.747 155.006 308.747V293.2L109.503 338.667L104.333 333.497L149.8 287.993H134.253C134.253 287.993 131.65 275.05 139.423 267.277C147.196 259.489 160.176 262.07 160.176 262.07V277.653L162.78 275.05L167.95 280.22L165.346 282.823H180.93C180.93 282.823 183.496 295.803 175.723 303.577Z" fill="#39FF94"/>
<rect x="231.421" y="444" width="200" height="200" rx="100" transform="rotate(45 231.421 444)" fill="#FFD1D3"/>
<path d="M264 581.333C264 601.683 249.92 620.713 231 625.333C212.08 620.713 198 601.683 198 581.333V559.333L231 544.667L264 559.333V581.333ZM231 618C244.75 614.333 256.667 597.98 256.667 582.14V564.1L231 552.66L205.333 564.1V582.14C205.333 597.98 217.25 614.333 231 618Z" fill="#FF6D74"/>
<rect x="373" y="585.421" width="200" height="200" rx="100" transform="rotate(-45 373 585.421)" fill="#FFC0E2"/>
<path d="M484.667 563H543.333V599.667H484.667V563ZM543.333 607C545.278 607 547.144 606.228 548.519 604.852C549.894 603.477 550.667 601.612 550.667 599.667V563C550.667 558.93 547.367 555.667 543.333 555.667H484.667C480.597 555.667 477.333 558.93 477.333 563V599.667C477.333 601.612 478.106 603.477 479.481 604.852C480.856 606.228 482.722 607 484.667 607H470V614.334H558V607H543.333Z" fill="#E37CB4"/>
<rect x="232" y="141.421" width="200" height="200" rx="100" transform="rotate(-45 232 141.421)" fill="#FFE5C0"/>
<path d="M383.78 168.5L373 162.157L362.22 168.5L365.08 156.253L355.584 148.04L368.087 146.977L373 135.5L377.914 146.977L390.417 148.04L380.92 156.253L383.78 168.5ZM402.334 104.333H343.667V111.667L361.487 125.013C355.27 127.667 350.16 132.386 347.021 138.372C343.882 144.359 342.908 151.246 344.262 157.869C345.616 164.491 349.215 170.443 354.452 174.717C359.689 178.992 366.241 181.326 373 181.326C379.76 181.326 386.312 178.992 391.549 174.717C396.785 170.443 400.385 164.491 401.739 157.869C403.093 151.246 402.118 144.359 398.98 138.372C395.841 132.386 390.731 127.667 384.514 125.013L402.334 111.667V104.333ZM395 152C395.002 156.167 393.821 160.248 391.594 163.769C389.368 167.29 386.187 170.107 382.422 171.891C378.657 173.675 374.462 174.354 370.327 173.847C366.191 173.341 362.285 171.671 359.061 169.031C355.838 166.391 353.43 162.891 352.119 158.936C350.807 154.982 350.646 150.736 351.653 146.693C352.66 142.65 354.794 138.977 357.807 136.099C360.82 133.222 364.589 131.26 368.674 130.44C371.528 129.853 374.472 129.853 377.327 130.44C382.31 131.44 386.793 134.133 390.015 138.064C393.236 141.994 394.998 146.918 395 152V152ZM375.31 122.667H370.69L356.024 111.667H390.27L375.31 122.667Z" fill="#FFBC5D"/>
<rect x="464" y="302.421" width="200" height="200" rx="100" transform="rotate(-45 464 302.421)" fill="#CDC0FF"/>
<path d="M572 280H638V324H572V280ZM605 291C607.917 291 610.715 292.159 612.778 294.222C614.841 296.285 616 299.083 616 302C616 304.918 614.841 307.716 612.778 309.778C610.715 311.841 607.917 313 605 313C602.083 313 599.285 311.841 597.222 309.778C595.159 307.716 594 304.918 594 302C594 299.083 595.159 296.285 597.222 294.222C599.285 292.159 602.083 291 605 291V291ZM586.667 287.334C586.667 289.278 585.894 291.144 584.519 292.519C583.144 293.894 581.278 294.667 579.333 294.667V309.334C581.278 309.334 583.144 310.106 584.519 311.481C585.894 312.857 586.667 314.722 586.667 316.667H623.333C623.333 314.722 624.106 312.857 625.481 311.481C626.856 310.106 628.722 309.334 630.667 309.334V294.667C628.722 294.667 626.856 293.894 625.481 292.519C624.106 291.144 623.333 289.278 623.333 287.334H586.667Z" fill="#A088FF"/>
</svg>
